<svg width="3975" height="1463" viewBox="0 0 3975 1463" fill="none" xmlns="http://www.w3.org/2000/svg">
    <rect width="3975" height="1463" rx="120" fill="black"/>
    <path d="M461 728.5C455.167 728.5 451.083 727.333 448.75 725C446.417 722.5 445.25 719.417 445.25 715.75V711.75C445.25 708.083 446.417 705.083 448.75 702.75C451.083 700.25 455.167 699 461 699C466.833 699 470.917 700.25 473.25 702.75C475.583 705.083 476.75 708.083 476.75 711.75V715.75C476.75 719.417 475.583 722.5 473.25 725C470.917 727.333 466.833 728.5 461 728.5ZM404.5 869H451V774H404.5V757H471V869H514.5V886H404.5V869ZM541.402 886V757H559.902V772H560.902C562.902 767 565.736 762.75 569.402 759.25C573.069 755.75 578.486 754 585.652 754C593.152 754 598.736 755.917 602.402 759.75C606.069 763.417 608.319 768.25 609.152 774.25H609.902C612.236 768.417 615.569 763.583 619.902 759.75C624.236 755.917 630.236 754 637.902 754C648.402 754 655.402 757.667 658.902 765C662.569 772.333 664.402 782.833 664.402 796.5V886H645.902V799.75C645.902 788.75 644.736 781.167 642.402 777C640.236 772.667 636.152 770.5 630.152 770.5C624.819 770.5 620.486 772.25 617.152 775.75C613.819 779.083 612.152 784.25 612.152 791.25V886H593.652V799.75C593.652 788.75 592.486 781.167 590.152 777C587.986 772.667 583.986 770.5 578.152 770.5C572.819 770.5 568.402 772.25 564.902 775.75C561.569 779.083 559.902 784.25 559.902 791.25V886H541.402ZM801.555 886C793.721 886 788.138 884 784.805 880C781.471 876 779.388 871 778.555 865H777.305C774.471 872.5 769.888 878.417 763.555 882.75C757.388 886.917 749.055 889 738.555 889C725.055 889 714.305 885.5 706.305 878.5C698.305 871.5 694.305 861.917 694.305 849.75C694.305 837.75 698.638 828.5 707.305 822C716.138 815.5 730.305 812.25 749.805 812.25H777.305V799.5C777.305 790 774.638 782.917 769.305 778.25C763.971 773.417 756.388 771 746.555 771C737.888 771 730.805 772.75 725.305 776.25C719.805 779.583 715.388 784.167 712.055 790L698.555 780C700.221 776.667 702.471 773.417 705.305 770.25C708.138 767.083 711.638 764.333 715.805 762C719.971 759.5 724.721 757.583 730.055 756.25C735.388 754.75 741.305 754 747.805 754C762.971 754 774.971 757.833 783.805 765.5C792.805 773.167 797.305 783.833 797.305 797.5V868.5H815.305V886H801.555ZM742.055 872.25C747.221 872.25 751.888 871.667 756.055 870.5C760.388 869.167 764.138 867.5 767.305 865.5C770.471 863.333 772.888 860.833 774.555 858C776.388 855 777.305 851.833 777.305 848.5V827.25H749.805C737.805 827.25 729.055 828.917 723.555 832.25C718.055 835.583 715.305 840.417 715.305 846.75V852C715.305 858.667 717.638 863.75 722.305 867.25C727.138 870.583 733.721 872.25 742.055 872.25ZM967.957 900.75C967.957 913.75 962.54 923.333 951.707 929.5C940.874 935.833 924.624 939 902.957 939C882.124 939 867.124 936.25 857.957 930.75C848.957 925.25 844.457 917.333 844.457 907C844.457 900 846.29 894.583 849.957 890.75C853.624 886.917 858.79 884.083 865.457 882.25V879.25C861.79 877.417 858.957 875.083 856.957 872.25C854.957 869.417 853.957 865.833 853.957 861.5C853.957 854.833 856.124 849.833 860.457 846.5C864.957 843.167 870.54 840.667 877.207 839V838C869.207 834.5 862.957 829.333 858.457 822.5C854.124 815.667 851.957 807.667 851.957 798.5C851.957 792 853.124 786 855.457 780.5C857.79 775 861.124 770.333 865.457 766.5C869.957 762.5 875.29 759.417 881.457 757.25C887.624 755.083 894.457 754 901.957 754C911.624 754 920.124 755.75 927.457 759.25V757C927.457 752 928.624 747.833 930.957 744.5C933.29 741.167 937.29 739.5 942.957 739.5H966.707V757H937.707V765.75C942.374 769.75 945.957 774.5 948.457 780C950.957 785.5 952.207 791.667 952.207 798.5C952.207 805 950.957 811 948.457 816.5C946.124 822 942.79 826.75 938.457 830.75C934.124 834.583 928.79 837.583 922.457 839.75C916.29 841.917 909.457 843 901.957 843C899.79 843 897.707 842.917 895.707 842.75C893.707 842.583 891.707 842.333 889.707 842C887.707 842.333 885.624 842.917 883.457 843.75C881.29 844.417 879.29 845.417 877.457 846.75C875.624 847.917 874.124 849.333 872.957 851C871.79 852.667 871.207 854.583 871.207 856.75C871.207 860.583 873.124 863.167 876.957 864.5C880.79 865.667 885.79 866.25 891.957 866.25H920.457C937.124 866.25 949.207 869.417 956.707 875.75C964.207 881.917 967.957 890.25 967.957 900.75ZM949.207 901.75C949.207 896.583 947.124 892.417 942.957 889.25C938.79 886.25 931.54 884.75 921.207 884.75H876.457C867.79 888.25 863.457 894.083 863.457 902.25C863.457 907.917 865.707 912.75 870.207 916.75C874.707 920.917 882.207 923 892.707 923H912.207C923.874 923 932.957 921.167 939.457 917.5C945.957 914 949.207 908.75 949.207 901.75ZM901.957 827.5C911.957 827.5 919.29 825.167 923.957 820.5C928.79 815.833 931.207 809.667 931.207 802V794.75C931.207 787.083 928.79 781 923.957 776.5C919.29 771.833 911.957 769.5 901.957 769.5C891.957 769.5 884.624 771.833 879.957 776.5C875.29 781 872.957 787.083 872.957 794.75V802C872.957 809.667 875.29 815.833 879.957 820.5C884.624 825.167 891.957 827.5 901.957 827.5ZM1054.86 889C1045.53 889 1037.11 887.417 1029.61 884.25C1022.28 881.083 1015.94 876.583 1010.61 870.75C1005.44 864.75 1001.44 857.667 998.609 849.5C995.776 841.167 994.359 831.917 994.359 821.75C994.359 811.417 995.776 802.083 998.609 793.75C1001.61 785.417 1005.69 778.333 1010.86 772.5C1016.03 766.5 1022.19 761.917 1029.36 758.75C1036.69 755.583 1044.78 754 1053.61 754C1062.28 754 1070.11 755.583 1077.11 758.75C1084.28 761.917 1090.36 766.333 1095.36 772C1100.36 777.5 1104.19 784.083 1106.86 791.75C1109.53 799.417 1110.86 807.833 1110.86 817V826.5H1015.36V832.5C1015.36 838.167 1016.28 843.417 1018.11 848.25C1019.94 853.083 1022.53 857.25 1025.86 860.75C1029.36 864.25 1033.53 867 1038.36 869C1043.36 870.833 1048.86 871.75 1054.86 871.75C1063.53 871.75 1071.03 869.75 1077.36 865.75C1083.69 861.75 1088.53 856.25 1091.86 849.25L1106.61 859.25C1102.78 867.917 1096.36 875.083 1087.36 880.75C1078.53 886.25 1067.69 889 1054.86 889ZM1053.61 770.5C1048.11 770.5 1043.03 771.5 1038.36 773.5C1033.69 775.5 1029.61 778.25 1026.11 781.75C1022.78 785.25 1020.11 789.417 1018.11 794.25C1016.28 798.917 1015.36 804.083 1015.36 809.75V811.5H1089.36V808.75C1089.36 803.083 1088.44 797.917 1086.61 793.25C1084.94 788.583 1082.53 784.583 1079.36 781.25C1076.36 777.75 1072.61 775.083 1068.11 773.25C1063.78 771.417 1058.94 770.5 1053.61 770.5ZM1202.51 888.25C1195.68 888.25 1190.85 886.833 1188.01 884C1185.35 881.167 1184.01 877.583 1184.01 873.25V868.75C1184.01 864.417 1185.35 860.833 1188.01 858C1190.85 855.167 1195.68 853.75 1202.51 853.75C1209.35 853.75 1214.1 855.167 1216.76 858C1219.6 860.833 1221.01 864.417 1221.01 868.75V873.25C1221.01 877.583 1219.6 881.167 1216.76 884C1214.1 886.833 1209.35 888.25 1202.51 888.25Z" fill="white"/>
    <path d="M3291 698L3185 504.5L3404.5 508.5L3291 698Z" fill="white" stroke="black"/>
    <rect width="118.948" height="507.299" transform="matrix(0.907515 -0.420019 0.454872 0.890557 2657.84 508.845)" fill="white"/>
    <rect width="101.357" height="231.365" transform="matrix(0.893453 0.449156 -0.485139 0.874437 2974.36 778.329)" fill="black"/>
    <rect width="118.948" height="507.299" transform="matrix(0.907515 -0.420019 0.454872 0.890557 2917.96 508.845)" fill="white"/>
    <path d="M3291.49 566L3287.69 717.44L3151.14 494.603L3291.49 566Z" fill="black"/>
    <rect x="2658" y="417" width="737" height="99" fill="black"/>
    <rect x="2658" y="947" width="822" height="99" fill="black"/>
    <rect x="3233" y="893" width="110" height="99" fill="black"/>
    <rect width="82.2713" height="583.391" transform="matrix(0.893453 0.449156 -0.485139 0.874437 3406.03 470)" fill="black"/>
    <rect x="3381" y="1046" width="629" height="99" transform="rotate(-90 3381 1046)" fill="black"/>
    <rect x="2562" y="1046" width="629" height="99" transform="rotate(-90 2562 1046)" fill="black"/>
    <rect x="378" y="508" width="669" height="122" rx="34" fill="#1C1C1C"/>
    <path d="M440.97 596.16H434.205C431.418 596.16 429.072 595.683 427.165 594.73C425.295 593.813 423.773 592.402 422.6 590.495C421.463 588.625 420.638 586.278 420.125 583.455C419.648 580.632 419.41 577.313 419.41 573.5C419.41 569.247 419.685 565.69 420.235 562.83C420.822 559.933 421.665 557.605 422.765 555.845C423.865 554.085 425.222 552.838 426.835 552.105C428.485 551.335 430.392 550.95 432.555 550.95C434.755 550.95 436.625 551.298 438.165 551.995C439.742 552.692 441.025 553.645 442.015 554.855C443.005 556.065 443.72 557.513 444.16 559.2C444.637 560.85 444.875 562.628 444.875 564.535V584.995H440.97V581.86H440.695C440.328 582.813 439.723 583.693 438.88 584.5C438.037 585.27 436.808 585.655 435.195 585.655C432.958 585.655 431.18 584.72 429.86 582.85C428.54 580.943 427.88 577.955 427.88 573.885C427.88 569.815 428.54 566.827 429.86 564.92C431.18 563.013 432.958 562.06 435.195 562.06C436.002 562.06 436.698 562.17 437.285 562.39C437.908 562.61 438.44 562.903 438.88 563.27C439.32 563.637 439.687 564.04 439.98 564.48C440.273 564.92 440.512 565.378 440.695 565.855H440.97V564.535C440.97 561.418 440.31 558.962 438.99 557.165C437.707 555.368 435.598 554.47 432.665 554.47C429.402 554.47 427.055 555.735 425.625 558.265C424.232 560.758 423.535 564.773 423.535 570.31V577.405C423.535 579.532 423.682 581.53 423.975 583.4C424.268 585.233 424.8 586.847 425.57 588.24C426.377 589.597 427.458 590.66 428.815 591.43C430.208 592.237 432.005 592.64 434.205 592.64H440.97V596.16ZM436.625 582.355C437.945 582.355 438.99 581.988 439.76 581.255C440.567 580.522 440.97 579.458 440.97 578.065V569.65C440.97 568.257 440.567 567.193 439.76 566.46C438.99 565.727 437.945 565.36 436.625 565.36C435.085 565.36 433.912 565.892 433.105 566.955C432.335 567.982 431.95 569.723 431.95 572.18V575.535C431.95 577.992 432.335 579.752 433.105 580.815C433.912 581.842 435.085 582.355 436.625 582.355ZM450.629 561.62H454.534L457.779 586.15H458.274L463.114 561.62H467.954L472.794 586.15H473.289L476.534 561.62H480.329L475.984 590H470.264L465.754 566.24H465.314L460.694 590H454.974L450.629 561.62ZM509.182 590C507.459 590 506.23 589.56 505.497 588.68C504.764 587.8 504.305 586.7 504.122 585.38H503.847C503.224 587.03 502.215 588.332 500.822 589.285C499.465 590.202 497.632 590.66 495.322 590.66C492.352 590.66 489.987 589.89 488.227 588.35C486.467 586.81 485.587 584.702 485.587 582.025C485.587 579.385 486.54 577.35 488.447 575.92C490.39 574.49 493.507 573.775 497.797 573.775H503.847V570.97C503.847 568.88 503.26 567.322 502.087 566.295C500.914 565.232 499.245 564.7 497.082 564.7C495.175 564.7 493.617 565.085 492.407 565.855C491.197 566.588 490.225 567.597 489.492 568.88L486.522 566.68C486.889 565.947 487.384 565.232 488.007 564.535C488.63 563.838 489.4 563.233 490.317 562.72C491.234 562.17 492.279 561.748 493.452 561.455C494.625 561.125 495.927 560.96 497.357 560.96C500.694 560.96 503.334 561.803 505.277 563.49C507.257 565.177 508.247 567.523 508.247 570.53V586.15H512.207V590H509.182ZM496.092 586.975C497.229 586.975 498.255 586.847 499.172 586.59C500.125 586.297 500.95 585.93 501.647 585.49C502.344 585.013 502.875 584.463 503.242 583.84C503.645 583.18 503.847 582.483 503.847 581.75V577.075H497.797C495.157 577.075 493.232 577.442 492.022 578.175C490.812 578.908 490.207 579.972 490.207 581.365V582.52C490.207 583.987 490.72 585.105 491.747 585.875C492.81 586.608 494.259 586.975 496.092 586.975ZM520.326 590V561.62H524.726V566.24H524.946C525.239 565.543 525.606 564.883 526.046 564.26C526.486 563.6 527.017 563.032 527.641 562.555C528.301 562.078 529.071 561.693 529.951 561.4C530.831 561.107 531.857 560.96 533.031 560.96C536.001 560.96 538.384 561.913 540.181 563.82C541.977 565.69 542.876 568.348 542.876 571.795V590H538.476V572.565C538.476 569.962 537.907 568.037 536.771 566.79C535.634 565.507 533.966 564.865 531.766 564.865C530.886 564.865 530.024 564.975 529.181 565.195C528.337 565.415 527.586 565.745 526.926 566.185C526.266 566.625 525.734 567.193 525.331 567.89C524.927 568.587 524.726 569.393 524.726 570.31V590H520.326ZM553.304 590V561.62H557.704V566.24H557.924C558.217 565.543 558.584 564.883 559.024 564.26C559.464 563.6 559.996 563.032 560.619 562.555C561.279 562.078 562.049 561.693 562.929 561.4C563.809 561.107 564.836 560.96 566.009 560.96C568.979 560.96 571.362 561.913 573.159 563.82C574.956 565.69 575.854 568.348 575.854 571.795V590H571.454V572.565C571.454 569.962 570.886 568.037 569.749 566.79C568.612 565.507 566.944 564.865 564.744 564.865C563.864 564.865 563.002 564.975 562.159 565.195C561.316 565.415 560.564 565.745 559.904 566.185C559.244 566.625 558.712 567.193 558.309 567.89C557.906 568.587 557.704 569.393 557.704 570.31V590H553.304ZM597.888 590.66C595.834 590.66 593.983 590.312 592.333 589.615C590.719 588.918 589.326 587.928 588.153 586.645C587.016 585.325 586.136 583.767 585.513 581.97C584.889 580.137 584.578 578.102 584.578 575.865C584.578 573.592 584.889 571.538 585.513 569.705C586.173 567.872 587.071 566.313 588.208 565.03C589.344 563.71 590.701 562.702 592.278 562.005C593.891 561.308 595.669 560.96 597.613 560.96C599.519 560.96 601.243 561.308 602.783 562.005C604.359 562.702 605.698 563.673 606.798 564.92C607.898 566.13 608.741 567.578 609.328 569.265C609.914 570.952 610.208 572.803 610.208 574.82V576.91H589.198V578.23C589.198 579.477 589.399 580.632 589.803 581.695C590.206 582.758 590.774 583.675 591.508 584.445C592.278 585.215 593.194 585.82 594.258 586.26C595.358 586.663 596.568 586.865 597.888 586.865C599.794 586.865 601.444 586.425 602.838 585.545C604.231 584.665 605.294 583.455 606.028 581.915L609.273 584.115C608.429 586.022 607.018 587.598 605.038 588.845C603.094 590.055 600.711 590.66 597.888 590.66ZM597.613 564.59C596.403 564.59 595.284 564.81 594.258 565.25C593.231 565.69 592.333 566.295 591.563 567.065C590.829 567.835 590.243 568.752 589.803 569.815C589.399 570.842 589.198 571.978 589.198 573.225V573.61H605.478V573.005C605.478 571.758 605.276 570.622 604.873 569.595C604.506 568.568 603.974 567.688 603.278 566.955C602.618 566.185 601.793 565.598 600.803 565.195C599.849 564.792 598.786 564.59 597.613 564.59ZM618.106 586.26H626.411V565.36H618.106V561.62H630.811V568.77H631.086C631.673 566.533 632.773 564.792 634.386 563.545C636.036 562.262 638.126 561.62 640.656 561.62H644.616V566.02H639.281C636.751 566.02 634.698 566.753 633.121 568.22C631.581 569.687 630.811 571.612 630.811 573.995V586.26H641.811V590H618.106V586.26ZM663.35 590.495C661.846 590.495 660.783 590.183 660.16 589.56C659.573 588.937 659.28 588.148 659.28 587.195V586.205C659.28 585.252 659.573 584.463 660.16 583.84C660.783 583.217 661.846 582.905 663.35 582.905C664.853 582.905 665.898 583.217 666.485 583.84C667.108 584.463 667.42 585.252 667.42 586.205V587.195C667.42 588.148 667.108 588.937 666.485 589.56C665.898 590.183 664.853 590.495 663.35 590.495ZM681.478 561.62H685.383L688.628 586.15H689.123L693.963 561.62H698.803L703.643 586.15H704.138L707.383 561.62H711.178L706.833 590H701.113L696.603 566.24H696.163L691.543 590H685.823L681.478 561.62ZM729.307 590.66C727.327 590.66 725.53 590.312 723.917 589.615C722.34 588.918 720.983 587.928 719.847 586.645C718.747 585.325 717.903 583.767 717.317 581.97C716.73 580.137 716.437 578.083 716.437 575.81C716.437 573.573 716.73 571.538 717.317 569.705C717.903 567.872 718.747 566.313 719.847 565.03C720.983 563.71 722.34 562.702 723.917 562.005C725.53 561.308 727.327 560.96 729.307 560.96C731.287 560.96 733.065 561.308 734.642 562.005C736.255 562.702 737.612 563.71 738.712 565.03C739.848 566.313 740.71 567.872 741.297 569.705C741.883 571.538 742.177 573.573 742.177 575.81C742.177 578.083 741.883 580.137 741.297 581.97C740.71 583.767 739.848 585.325 738.712 586.645C737.612 587.928 736.255 588.918 734.642 589.615C733.065 590.312 731.287 590.66 729.307 590.66ZM729.307 586.865C731.763 586.865 733.743 586.132 735.247 584.665C736.75 583.198 737.502 580.925 737.502 577.845V573.775C737.502 570.695 736.75 568.422 735.247 566.955C733.743 565.488 731.763 564.755 729.307 564.755C726.85 564.755 724.87 565.488 723.367 566.955C721.863 568.422 721.112 570.695 721.112 573.775V577.845C721.112 580.925 721.863 583.198 723.367 584.665C724.87 586.132 726.85 586.865 729.307 586.865ZM750.02 586.26H758.325V565.36H750.02V561.62H762.725V568.77H763C763.587 566.533 764.687 564.792 766.3 563.545C767.95 562.262 770.04 561.62 772.57 561.62H776.53V566.02H771.195C768.665 566.02 766.612 566.753 765.035 568.22C763.495 569.687 762.725 571.612 762.725 573.995V586.26H773.725V590H750.02V586.26ZM784.539 549.3H788.939V574.985H789.159L794.109 570.31L803.569 561.62H808.959L797.189 572.73L810.334 590H804.889L793.834 575.26L788.939 579.715V590H784.539V549.3ZM816.692 597.59L835.832 548.2H839.792L820.652 597.59H816.692ZM862.981 555.35C861.697 555.35 860.799 555.093 860.286 554.58C859.772 554.03 859.516 553.352 859.516 552.545V551.665C859.516 550.858 859.772 550.198 860.286 549.685C860.799 549.135 861.697 548.86 862.981 548.86C864.264 548.86 865.162 549.135 865.676 549.685C866.189 550.198 866.446 550.858 866.446 551.665V552.545C866.446 553.352 866.189 554.03 865.676 554.58C865.162 555.093 864.264 555.35 862.981 555.35ZM850.551 586.26H860.781V565.36H850.551V561.62H865.181V586.26H874.751V590H850.551V586.26ZM880.669 590V561.62H884.739V564.92H884.959C885.399 563.82 886.023 562.885 886.829 562.115C887.636 561.345 888.828 560.96 890.404 560.96C892.054 560.96 893.283 561.382 894.089 562.225C894.896 563.032 895.391 564.095 895.574 565.415H895.739C896.253 564.132 896.986 563.068 897.939 562.225C898.893 561.382 900.213 560.96 901.899 560.96C904.209 560.96 905.749 561.767 906.519 563.38C907.326 564.993 907.729 567.303 907.729 570.31V590H903.659V571.025C903.659 568.605 903.403 566.937 902.889 566.02C902.413 565.067 901.514 564.59 900.194 564.59C899.021 564.59 898.068 564.975 897.334 565.745C896.601 566.478 896.234 567.615 896.234 569.155V590H892.164V571.025C892.164 568.605 891.908 566.937 891.394 566.02C890.918 565.067 890.038 564.59 888.754 564.59C887.581 564.59 886.609 564.975 885.839 565.745C885.106 566.478 884.739 567.615 884.739 569.155V590H880.669ZM937.903 590C936.179 590 934.951 589.56 934.218 588.68C933.484 587.8 933.026 586.7 932.843 585.38H932.568C931.944 587.03 930.936 588.332 929.543 589.285C928.186 590.202 926.353 590.66 924.043 590.66C921.073 590.66 918.708 589.89 916.948 588.35C915.188 586.81 914.308 584.702 914.308 582.025C914.308 579.385 915.261 577.35 917.168 575.92C919.111 574.49 922.228 573.775 926.518 573.775H932.568V570.97C932.568 568.88 931.981 567.322 930.808 566.295C929.634 565.232 927.966 564.7 925.803 564.7C923.896 564.7 922.338 565.085 921.128 565.855C919.918 566.588 918.946 567.597 918.213 568.88L915.243 566.68C915.609 565.947 916.104 565.232 916.728 564.535C917.351 563.838 918.121 563.233 919.038 562.72C919.954 562.17 920.999 561.748 922.173 561.455C923.346 561.125 924.648 560.96 926.078 560.96C929.414 560.96 932.054 561.803 933.998 563.49C935.978 565.177 936.968 567.523 936.968 570.53V586.15H940.928V590H937.903ZM924.813 586.975C925.949 586.975 926.976 586.847 927.893 586.59C928.846 586.297 929.671 585.93 930.368 585.49C931.064 585.013 931.596 584.463 931.963 583.84C932.366 583.18 932.568 582.483 932.568 581.75V577.075H926.518C923.878 577.075 921.953 577.442 920.743 578.175C919.533 578.908 918.928 579.972 918.928 581.365V582.52C918.928 583.987 919.441 585.105 920.468 585.875C921.531 586.608 922.979 586.975 924.813 586.975ZM974.511 593.245C974.511 596.105 973.32 598.213 970.936 599.57C968.553 600.963 964.978 601.66 960.211 601.66C955.628 601.66 952.328 601.055 950.311 599.845C948.331 598.635 947.341 596.893 947.341 594.62C947.341 593.08 947.745 591.888 948.551 591.045C949.358 590.202 950.495 589.578 951.961 589.175V588.515C951.155 588.112 950.531 587.598 950.091 586.975C949.651 586.352 949.431 585.563 949.431 584.61C949.431 583.143 949.908 582.043 950.861 581.31C951.851 580.577 953.08 580.027 954.546 579.66V579.44C952.786 578.67 951.411 577.533 950.421 576.03C949.468 574.527 948.991 572.767 948.991 570.75C948.991 569.32 949.248 568 949.761 566.79C950.275 565.58 951.008 564.553 951.961 563.71C952.951 562.83 954.125 562.152 955.481 561.675C956.838 561.198 958.341 560.96 959.991 560.96C962.118 560.96 963.988 561.345 965.601 562.115V561.62C965.601 560.52 965.858 559.603 966.371 558.87C966.885 558.137 967.765 557.77 969.011 557.77H974.236V561.62H967.856V563.545C968.883 564.425 969.671 565.47 970.221 566.68C970.771 567.89 971.046 569.247 971.046 570.75C971.046 572.18 970.771 573.5 970.221 574.71C969.708 575.92 968.975 576.965 968.021 577.845C967.068 578.688 965.895 579.348 964.501 579.825C963.145 580.302 961.641 580.54 959.991 580.54C959.515 580.54 959.056 580.522 958.616 580.485C958.176 580.448 957.736 580.393 957.296 580.32C956.856 580.393 956.398 580.522 955.921 580.705C955.445 580.852 955.005 581.072 954.601 581.365C954.198 581.622 953.868 581.933 953.611 582.3C953.355 582.667 953.226 583.088 953.226 583.565C953.226 584.408 953.648 584.977 954.491 585.27C955.335 585.527 956.435 585.655 957.791 585.655H964.061C967.728 585.655 970.386 586.352 972.036 587.745C973.686 589.102 974.511 590.935 974.511 593.245ZM970.386 593.465C970.386 592.328 969.928 591.412 969.011 590.715C968.095 590.055 966.5 589.725 964.226 589.725H954.381C952.475 590.495 951.521 591.778 951.521 593.575C951.521 594.822 952.016 595.885 953.006 596.765C953.996 597.682 955.646 598.14 957.956 598.14H962.246C964.813 598.14 966.811 597.737 968.241 596.93C969.671 596.16 970.386 595.005 970.386 593.465ZM959.991 577.13C962.191 577.13 963.805 576.617 964.831 575.59C965.895 574.563 966.426 573.207 966.426 571.52V569.925C966.426 568.238 965.895 566.9 964.831 565.91C963.805 564.883 962.191 564.37 959.991 564.37C957.791 564.37 956.178 564.883 955.151 565.91C954.125 566.9 953.611 568.238 953.611 569.925V571.52C953.611 573.207 954.125 574.563 955.151 575.59C956.178 576.617 957.791 577.13 959.991 577.13ZM993.63 590.66C991.576 590.66 989.725 590.312 988.075 589.615C986.461 588.918 985.068 587.928 983.895 586.645C982.758 585.325 981.878 583.767 981.255 581.97C980.631 580.137 980.32 578.102 980.32 575.865C980.32 573.592 980.631 571.538 981.255 569.705C981.915 567.872 982.813 566.313 983.95 565.03C985.086 563.71 986.443 562.702 988.02 562.005C989.633 561.308 991.411 560.96 993.355 560.96C995.261 560.96 996.985 561.308 998.525 562.005C1000.1 562.702 1001.44 563.673 1002.54 564.92C1003.64 566.13 1004.48 567.578 1005.07 569.265C1005.66 570.952 1005.95 572.803 1005.95 574.82V576.91H984.94V578.23C984.94 579.477 985.141 580.632 985.545 581.695C985.948 582.758 986.516 583.675 987.25 584.445C988.02 585.215 988.936 585.82 990 586.26C991.1 586.663 992.31 586.865 993.63 586.865C995.536 586.865 997.186 586.425 998.58 585.545C999.973 584.665 1001.04 583.455 1001.77 581.915L1005.01 584.115C1004.17 586.022 1002.76 587.598 1000.78 588.845C998.836 590.055 996.453 590.66 993.63 590.66ZM993.355 564.59C992.145 564.59 991.026 564.81 990 565.25C988.973 565.69 988.075 566.295 987.305 567.065C986.571 567.835 985.985 568.752 985.545 569.815C985.141 570.842 984.94 571.978 984.94 573.225V573.61H1001.22V573.005C1001.22 571.758 1001.02 570.622 1000.61 569.595C1000.25 568.568 999.716 567.688 999.02 566.955C998.36 566.185 997.535 565.598 996.545 565.195C995.591 564.792 994.528 564.59 993.355 564.59Z" fill="white" fill-opacity="0.71"/>
</svg>
