<svg width="3975" height="1463" viewBox="0 0 3975 1463" fill="none" xmlns="http://www.w3.org/2000/svg">
    <rect width="3975" height="1463" rx="120" fill="black"/>
    <path d="M401.75 701H421.75V778H422.75C431.083 762 444.333 754 462.5 754C478.333 754 490.667 759.917 499.5 771.75C508.5 783.583 513 800.167 513 821.5C513 842.833 508.5 859.417 499.5 871.25C490.667 883.083 478.333 889 462.5 889C444.333 889 431.083 881 422.75 865H421.75V886H401.75V701ZM454.75 871.25C466.417 871.25 475.417 867.75 481.75 860.75C488.25 853.583 491.5 844.167 491.5 832.5V810.5C491.5 798.833 488.25 789.5 481.75 782.5C475.417 775.333 466.417 771.75 454.75 771.75C450.25 771.75 446 772.333 442 773.5C438 774.667 434.5 776.417 431.5 778.75C428.5 780.917 426.083 783.667 424.25 787C422.583 790.167 421.75 793.917 421.75 798.25V844.75C421.75 849.083 422.583 852.917 424.25 856.25C426.083 859.417 428.5 862.167 431.5 864.5C434.5 866.667 438 868.333 442 869.5C446 870.667 450.25 871.25 454.75 871.25ZM602.902 889C593.902 889 585.736 887.417 578.402 884.25C571.236 881.083 565.069 876.583 559.902 870.75C554.902 864.75 551.069 857.667 548.402 849.5C545.736 841.167 544.402 831.833 544.402 821.5C544.402 811.333 545.736 802.083 548.402 793.75C551.069 785.417 554.902 778.333 559.902 772.5C565.069 766.5 571.236 761.917 578.402 758.75C585.736 755.583 593.902 754 602.902 754C611.902 754 619.986 755.583 627.152 758.75C634.486 761.917 640.652 766.5 645.652 772.5C650.819 778.333 654.736 785.417 657.402 793.75C660.069 802.083 661.402 811.333 661.402 821.5C661.402 831.833 660.069 841.167 657.402 849.5C654.736 857.667 650.819 864.75 645.652 870.75C640.652 876.583 634.486 881.083 627.152 884.25C619.986 887.417 611.902 889 602.902 889ZM602.902 871.75C614.069 871.75 623.069 868.417 629.902 861.75C636.736 855.083 640.152 844.75 640.152 830.75V812.25C640.152 798.25 636.736 787.917 629.902 781.25C623.069 774.583 614.069 771.25 602.902 771.25C591.736 771.25 582.736 774.583 575.902 781.25C569.069 787.917 565.652 798.25 565.652 812.25V830.75C565.652 844.75 569.069 855.083 575.902 861.75C582.736 868.417 591.736 871.75 602.902 871.75ZM693.055 886L741.055 820.5L694.305 757H718.305L737.805 784.25L753.305 805.75H754.305L769.305 784.25L788.555 757H811.555L764.305 820.25L812.805 886H788.805L767.055 855.75L752.305 835.25H751.305L737.055 855.75L716.055 886H693.055ZM902.707 888.25C895.874 888.25 891.04 886.833 888.207 884C885.54 881.167 884.207 877.583 884.207 873.25V868.75C884.207 864.417 885.54 860.833 888.207 858C891.04 855.167 895.874 853.75 902.707 853.75C909.54 853.75 914.29 855.167 916.957 858C919.79 860.833 921.207 864.417 921.207 868.75V873.25C921.207 877.583 919.79 881.167 916.957 884C914.29 886.833 909.54 888.25 902.707 888.25Z" fill="white"/>
    <path d="M3291 698L3185 504.5L3404.5 508.5L3291 698Z" fill="white" stroke="black"/>
    <rect width="118.948" height="507.299" transform="matrix(0.907515 -0.420019 0.454872 0.890557 2657.84 508.845)" fill="white"/>
    <rect width="101.357" height="231.365" transform="matrix(0.893453 0.449156 -0.485139 0.874437 2974.36 778.329)" fill="black"/>
    <rect width="118.948" height="507.299" transform="matrix(0.907515 -0.420019 0.454872 0.890557 2917.96 508.845)" fill="white"/>
    <path d="M3291.49 566L3287.7 717.44L3151.14 494.603L3291.49 566Z" fill="black"/>
    <rect x="2658" y="417" width="737" height="99" fill="black"/>
    <rect x="2658" y="947" width="822" height="99" fill="black"/>
    <rect x="3233" y="893" width="110" height="99" fill="black"/>
    <rect width="82.2713" height="583.391" transform="matrix(0.893453 0.449156 -0.485139 0.874437 3406.03 470)" fill="black"/>
    <rect x="3381" y="1046" width="629" height="99" transform="rotate(-90 3381 1046)" fill="black"/>
    <rect x="2562" y="1046" width="629" height="99" transform="rotate(-90 2562 1046)" fill="black"/>
    <rect x="378" y="508" width="600" height="122" rx="34" fill="#1C1C1C"/>
    <path d="M440.97 596.16H434.205C431.418 596.16 429.072 595.683 427.165 594.73C425.295 593.813 423.773 592.402 422.6 590.495C421.463 588.625 420.638 586.278 420.125 583.455C419.648 580.632 419.41 577.313 419.41 573.5C419.41 569.247 419.685 565.69 420.235 562.83C420.822 559.933 421.665 557.605 422.765 555.845C423.865 554.085 425.222 552.838 426.835 552.105C428.485 551.335 430.392 550.95 432.555 550.95C434.755 550.95 436.625 551.298 438.165 551.995C439.742 552.692 441.025 553.645 442.015 554.855C443.005 556.065 443.72 557.513 444.16 559.2C444.637 560.85 444.875 562.628 444.875 564.535V584.995H440.97V581.86H440.695C440.328 582.813 439.723 583.693 438.88 584.5C438.037 585.27 436.808 585.655 435.195 585.655C432.958 585.655 431.18 584.72 429.86 582.85C428.54 580.943 427.88 577.955 427.88 573.885C427.88 569.815 428.54 566.827 429.86 564.92C431.18 563.013 432.958 562.06 435.195 562.06C436.002 562.06 436.698 562.17 437.285 562.39C437.908 562.61 438.44 562.903 438.88 563.27C439.32 563.637 439.687 564.04 439.98 564.48C440.273 564.92 440.512 565.378 440.695 565.855H440.97V564.535C440.97 561.418 440.31 558.962 438.99 557.165C437.707 555.368 435.598 554.47 432.665 554.47C429.402 554.47 427.055 555.735 425.625 558.265C424.232 560.758 423.535 564.773 423.535 570.31V577.405C423.535 579.532 423.682 581.53 423.975 583.4C424.268 585.233 424.8 586.847 425.57 588.24C426.377 589.597 427.458 590.66 428.815 591.43C430.208 592.237 432.005 592.64 434.205 592.64H440.97V596.16ZM436.625 582.355C437.945 582.355 438.99 581.988 439.76 581.255C440.567 580.522 440.97 579.458 440.97 578.065V569.65C440.97 568.257 440.567 567.193 439.76 566.46C438.99 565.727 437.945 565.36 436.625 565.36C435.085 565.36 433.912 565.892 433.105 566.955C432.335 567.982 431.95 569.723 431.95 572.18V575.535C431.95 577.992 432.335 579.752 433.105 580.815C433.912 581.842 435.085 582.355 436.625 582.355ZM450.629 561.62H454.534L457.779 586.15H458.274L463.114 561.62H467.954L472.794 586.15H473.289L476.534 561.62H480.329L475.984 590H470.264L465.754 566.24H465.314L460.694 590H454.974L450.629 561.62ZM509.182 590C507.459 590 506.23 589.56 505.497 588.68C504.764 587.8 504.305 586.7 504.122 585.38H503.847C503.224 587.03 502.215 588.332 500.822 589.285C499.465 590.202 497.632 590.66 495.322 590.66C492.352 590.66 489.987 589.89 488.227 588.35C486.467 586.81 485.587 584.702 485.587 582.025C485.587 579.385 486.54 577.35 488.447 575.92C490.39 574.49 493.507 573.775 497.797 573.775H503.847V570.97C503.847 568.88 503.26 567.322 502.087 566.295C500.914 565.232 499.245 564.7 497.082 564.7C495.175 564.7 493.617 565.085 492.407 565.855C491.197 566.588 490.225 567.597 489.492 568.88L486.522 566.68C486.889 565.947 487.384 565.232 488.007 564.535C488.63 563.838 489.4 563.233 490.317 562.72C491.234 562.17 492.279 561.748 493.452 561.455C494.625 561.125 495.927 560.96 497.357 560.96C500.694 560.96 503.334 561.803 505.277 563.49C507.257 565.177 508.247 567.523 508.247 570.53V586.15H512.207V590H509.182ZM496.092 586.975C497.229 586.975 498.255 586.847 499.172 586.59C500.125 586.297 500.95 585.93 501.647 585.49C502.344 585.013 502.875 584.463 503.242 583.84C503.645 583.18 503.847 582.483 503.847 581.75V577.075H497.797C495.157 577.075 493.232 577.442 492.022 578.175C490.812 578.908 490.207 579.972 490.207 581.365V582.52C490.207 583.987 490.72 585.105 491.747 585.875C492.81 586.608 494.259 586.975 496.092 586.975ZM520.326 590V561.62H524.726V566.24H524.946C525.239 565.543 525.606 564.883 526.046 564.26C526.486 563.6 527.017 563.032 527.641 562.555C528.301 562.078 529.071 561.693 529.951 561.4C530.831 561.107 531.857 560.96 533.031 560.96C536.001 560.96 538.384 561.913 540.181 563.82C541.977 565.69 542.876 568.348 542.876 571.795V590H538.476V572.565C538.476 569.962 537.907 568.037 536.771 566.79C535.634 565.507 533.966 564.865 531.766 564.865C530.886 564.865 530.024 564.975 529.181 565.195C528.337 565.415 527.586 565.745 526.926 566.185C526.266 566.625 525.734 567.193 525.331 567.89C524.927 568.587 524.726 569.393 524.726 570.31V590H520.326ZM553.304 590V561.62H557.704V566.24H557.924C558.217 565.543 558.584 564.883 559.024 564.26C559.464 563.6 559.996 563.032 560.619 562.555C561.279 562.078 562.049 561.693 562.929 561.4C563.809 561.107 564.836 560.96 566.009 560.96C568.979 560.96 571.362 561.913 573.159 563.82C574.956 565.69 575.854 568.348 575.854 571.795V590H571.454V572.565C571.454 569.962 570.886 568.037 569.749 566.79C568.612 565.507 566.944 564.865 564.744 564.865C563.864 564.865 563.002 564.975 562.159 565.195C561.316 565.415 560.564 565.745 559.904 566.185C559.244 566.625 558.712 567.193 558.309 567.89C557.906 568.587 557.704 569.393 557.704 570.31V590H553.304ZM597.888 590.66C595.834 590.66 593.983 590.312 592.333 589.615C590.719 588.918 589.326 587.928 588.153 586.645C587.016 585.325 586.136 583.767 585.513 581.97C584.889 580.137 584.578 578.102 584.578 575.865C584.578 573.592 584.889 571.538 585.513 569.705C586.173 567.872 587.071 566.313 588.208 565.03C589.344 563.71 590.701 562.702 592.278 562.005C593.891 561.308 595.669 560.96 597.613 560.96C599.519 560.96 601.243 561.308 602.783 562.005C604.359 562.702 605.698 563.673 606.798 564.92C607.898 566.13 608.741 567.578 609.328 569.265C609.914 570.952 610.208 572.803 610.208 574.82V576.91H589.198V578.23C589.198 579.477 589.399 580.632 589.803 581.695C590.206 582.758 590.774 583.675 591.508 584.445C592.278 585.215 593.194 585.82 594.258 586.26C595.358 586.663 596.568 586.865 597.888 586.865C599.794 586.865 601.444 586.425 602.838 585.545C604.231 584.665 605.294 583.455 606.028 581.915L609.273 584.115C608.429 586.022 607.018 587.598 605.038 588.845C603.094 590.055 600.711 590.66 597.888 590.66ZM597.613 564.59C596.403 564.59 595.284 564.81 594.258 565.25C593.231 565.69 592.333 566.295 591.563 567.065C590.829 567.835 590.243 568.752 589.803 569.815C589.399 570.842 589.198 571.978 589.198 573.225V573.61H605.478V573.005C605.478 571.758 605.276 570.622 604.873 569.595C604.506 568.568 603.974 567.688 603.278 566.955C602.618 566.185 601.793 565.598 600.803 565.195C599.849 564.792 598.786 564.59 597.613 564.59ZM618.106 586.26H626.411V565.36H618.106V561.62H630.811V568.77H631.086C631.673 566.533 632.773 564.792 634.386 563.545C636.036 562.262 638.126 561.62 640.656 561.62H644.616V566.02H639.281C636.751 566.02 634.698 566.753 633.121 568.22C631.581 569.687 630.811 571.612 630.811 573.995V586.26H641.811V590H618.106V586.26ZM663.35 590.495C661.846 590.495 660.783 590.183 660.16 589.56C659.573 588.937 659.28 588.148 659.28 587.195V586.205C659.28 585.252 659.573 584.463 660.16 583.84C660.783 583.217 661.846 582.905 663.35 582.905C664.853 582.905 665.898 583.217 666.485 583.84C667.108 584.463 667.42 585.252 667.42 586.205V587.195C667.42 588.148 667.108 588.937 666.485 589.56C665.898 590.183 664.853 590.495 663.35 590.495ZM681.478 561.62H685.383L688.628 586.15H689.123L693.963 561.62H698.803L703.643 586.15H704.138L707.383 561.62H711.178L706.833 590H701.113L696.603 566.24H696.163L691.543 590H685.823L681.478 561.62ZM729.307 590.66C727.327 590.66 725.53 590.312 723.917 589.615C722.34 588.918 720.983 587.928 719.847 586.645C718.747 585.325 717.903 583.767 717.317 581.97C716.73 580.137 716.437 578.083 716.437 575.81C716.437 573.573 716.73 571.538 717.317 569.705C717.903 567.872 718.747 566.313 719.847 565.03C720.983 563.71 722.34 562.702 723.917 562.005C725.53 561.308 727.327 560.96 729.307 560.96C731.287 560.96 733.065 561.308 734.642 562.005C736.255 562.702 737.612 563.71 738.712 565.03C739.848 566.313 740.71 567.872 741.297 569.705C741.883 571.538 742.177 573.573 742.177 575.81C742.177 578.083 741.883 580.137 741.297 581.97C740.71 583.767 739.848 585.325 738.712 586.645C737.612 587.928 736.255 588.918 734.642 589.615C733.065 590.312 731.287 590.66 729.307 590.66ZM729.307 586.865C731.763 586.865 733.743 586.132 735.247 584.665C736.75 583.198 737.502 580.925 737.502 577.845V573.775C737.502 570.695 736.75 568.422 735.247 566.955C733.743 565.488 731.763 564.755 729.307 564.755C726.85 564.755 724.87 565.488 723.367 566.955C721.863 568.422 721.112 570.695 721.112 573.775V577.845C721.112 580.925 721.863 583.198 723.367 584.665C724.87 586.132 726.85 586.865 729.307 586.865ZM750.02 586.26H758.325V565.36H750.02V561.62H762.725V568.77H763C763.587 566.533 764.687 564.792 766.3 563.545C767.95 562.262 770.04 561.62 772.57 561.62H776.53V566.02H771.195C768.665 566.02 766.612 566.753 765.035 568.22C763.495 569.687 762.725 571.612 762.725 573.995V586.26H773.725V590H750.02V586.26ZM784.539 549.3H788.939V574.985H789.159L794.109 570.31L803.569 561.62H808.959L797.189 572.73L810.334 590H804.889L793.834 575.26L788.939 579.715V590H784.539V549.3ZM816.692 597.59L835.832 548.2H839.792L820.652 597.59H816.692ZM849.946 549.3H854.346V566.24H854.566C856.399 562.72 859.314 560.96 863.311 560.96C866.794 560.96 869.507 562.262 871.451 564.865C873.431 567.468 874.421 571.117 874.421 575.81C874.421 580.503 873.431 584.152 871.451 586.755C869.507 589.358 866.794 590.66 863.311 590.66C859.314 590.66 856.399 588.9 854.566 585.38H854.346V590H849.946V549.3ZM861.606 586.755C864.172 586.755 866.152 585.985 867.546 584.445C868.976 582.868 869.691 580.797 869.691 578.23V573.39C869.691 570.823 868.976 568.77 867.546 567.23C866.152 565.653 864.172 564.865 861.606 564.865C860.616 564.865 859.681 564.993 858.801 565.25C857.921 565.507 857.151 565.892 856.491 566.405C855.831 566.882 855.299 567.487 854.896 568.22C854.529 568.917 854.346 569.742 854.346 570.695V580.925C854.346 581.878 854.529 582.722 854.896 583.455C855.299 584.152 855.831 584.757 856.491 585.27C857.151 585.747 857.921 586.113 858.801 586.37C859.681 586.627 860.616 586.755 861.606 586.755ZM894.199 590.66C892.219 590.66 890.423 590.312 888.809 589.615C887.233 588.918 885.876 587.928 884.739 586.645C883.639 585.325 882.796 583.767 882.209 581.97C881.623 580.137 881.329 578.083 881.329 575.81C881.329 573.573 881.623 571.538 882.209 569.705C882.796 567.872 883.639 566.313 884.739 565.03C885.876 563.71 887.233 562.702 888.809 562.005C890.423 561.308 892.219 560.96 894.199 560.96C896.179 560.96 897.958 561.308 899.534 562.005C901.148 562.702 902.504 563.71 903.604 565.03C904.741 566.313 905.603 567.872 906.189 569.705C906.776 571.538 907.069 573.573 907.069 575.81C907.069 578.083 906.776 580.137 906.189 581.97C905.603 583.767 904.741 585.325 903.604 586.645C902.504 587.928 901.148 588.918 899.534 589.615C897.958 590.312 896.179 590.66 894.199 590.66ZM894.199 586.865C896.656 586.865 898.636 586.132 900.139 584.665C901.643 583.198 902.394 580.925 902.394 577.845V573.775C902.394 570.695 901.643 568.422 900.139 566.955C898.636 565.488 896.656 564.755 894.199 564.755C891.743 564.755 889.763 565.488 888.259 566.955C886.756 568.422 886.004 570.695 886.004 573.775V577.845C886.004 580.925 886.756 583.198 888.259 584.665C889.763 586.132 891.743 586.865 894.199 586.865ZM914.033 590L924.593 575.59L914.308 561.62H919.588L923.878 567.615L927.288 572.345H927.508L930.808 567.615L935.043 561.62H940.103L929.708 575.535L940.378 590H935.098L930.313 583.345L927.068 578.835H926.848L923.713 583.345L919.093 590H914.033Z" fill="white" fill-opacity="0.71"/>
</svg>
