<svg width="3975" height="1463" viewBox="0 0 3975 1463" fill="none" xmlns="http://www.w3.org/2000/svg">
    <rect width="3975" height="1463" rx="120" fill="black"/>
    <path d="M451.5 794C442.167 794 433.833 792.417 426.5 789.25C419.333 785.917 413.25 781.333 408.25 775.5C403.25 769.667 399.417 762.583 396.75 754.25C394.25 745.917 393 736.667 393 726.5C393 716.333 394.333 707.083 397 698.75C399.667 690.417 403.5 683.333 408.5 677.5C413.5 671.5 419.583 666.917 426.75 663.75C433.917 660.583 442.083 659 451.25 659C463.75 659 473.917 661.75 481.75 667.25C489.583 672.75 495.333 679.917 499 688.75L483 697.25C480.667 690.583 476.75 685.417 471.25 681.75C465.917 678.083 459.25 676.25 451.25 676.25C445.417 676.25 440.167 677.25 435.5 679.25C431 681.083 427.167 683.75 424 687.25C420.833 690.75 418.417 694.917 416.75 699.75C415.25 704.583 414.5 709.833 414.5 715.5V737.5C414.5 743.167 415.25 748.417 416.75 753.25C418.417 758.083 420.833 762.25 424 765.75C427.167 769.25 431.083 772 435.75 774C440.417 775.833 445.75 776.75 451.75 776.75C460.417 776.75 467.583 774.75 473.25 770.75C478.917 766.75 483.417 761.25 486.75 754.25L501 764C497.167 772.667 491.167 779.833 483 785.5C475 791.167 464.5 794 451.5 794ZM596.902 794C587.902 794 579.736 792.417 572.402 789.25C565.236 786.083 559.069 781.583 553.902 775.75C548.902 769.75 545.069 762.667 542.402 754.5C539.736 746.167 538.402 736.833 538.402 726.5C538.402 716.333 539.736 707.083 542.402 698.75C545.069 690.417 548.902 683.333 553.902 677.5C559.069 671.5 565.236 666.917 572.402 663.75C579.736 660.583 587.902 659 596.902 659C605.902 659 613.986 660.583 621.152 663.75C628.486 666.917 634.652 671.5 639.652 677.5C644.819 683.333 648.736 690.417 651.402 698.75C654.069 707.083 655.402 716.333 655.402 726.5C655.402 736.833 654.069 746.167 651.402 754.5C648.736 762.667 644.819 769.75 639.652 775.75C634.652 781.583 628.486 786.083 621.152 789.25C613.986 792.417 605.902 794 596.902 794ZM596.902 776.75C608.069 776.75 617.069 773.417 623.902 766.75C630.736 760.083 634.152 749.75 634.152 735.75V717.25C634.152 703.25 630.736 692.917 623.902 686.25C617.069 679.583 608.069 676.25 596.902 676.25C585.736 676.25 576.736 679.583 569.902 686.25C563.069 692.917 559.652 703.25 559.652 717.25V735.75C559.652 749.75 563.069 760.083 569.902 766.75C576.736 773.417 585.736 776.75 596.902 776.75ZM685.305 791V662H703.805V677H704.805C706.805 672 709.638 667.75 713.305 664.25C716.971 660.75 722.388 659 729.555 659C737.055 659 742.638 660.917 746.305 664.75C749.971 668.417 752.221 673.25 753.055 679.25H753.805C756.138 673.417 759.471 668.583 763.805 664.75C768.138 660.917 774.138 659 781.805 659C792.305 659 799.305 662.667 802.805 670C806.471 677.333 808.305 687.833 808.305 701.5V791H789.805V704.75C789.805 693.75 788.638 686.167 786.305 682C784.138 677.667 780.055 675.5 774.055 675.5C768.721 675.5 764.388 677.25 761.055 680.75C757.721 684.083 756.055 689.25 756.055 696.25V791H737.555V704.75C737.555 693.75 736.388 686.167 734.055 682C731.888 677.667 727.888 675.5 722.055 675.5C716.721 675.5 712.305 677.25 708.805 680.75C705.471 684.083 703.805 689.25 703.805 696.25V791H685.305ZM845.457 662H865.457V683H866.457C874.79 667 888.04 659 906.207 659C922.04 659 934.374 664.917 943.207 676.75C952.207 688.583 956.707 705.167 956.707 726.5C956.707 747.833 952.207 764.417 943.207 776.25C934.374 788.083 922.04 794 906.207 794C888.04 794 874.79 786 866.457 770H865.457V841H845.457V662ZM898.457 776.25C910.124 776.25 919.124 772.75 925.457 765.75C931.957 758.583 935.207 749.167 935.207 737.5V715.5C935.207 703.833 931.957 694.5 925.457 687.5C919.124 680.333 910.124 676.75 898.457 676.75C893.957 676.75 889.707 677.333 885.707 678.5C881.707 679.667 878.207 681.417 875.207 683.75C872.207 685.917 869.79 688.667 867.957 692C866.29 695.167 865.457 698.917 865.457 703.25V749.75C865.457 754.083 866.29 757.917 867.957 761.25C869.79 764.417 872.207 767.167 875.207 769.5C878.207 771.667 881.707 773.333 885.707 774.5C889.707 775.667 893.957 776.25 898.457 776.25ZM1046.61 794C1037.61 794 1029.44 792.417 1022.11 789.25C1014.94 786.083 1008.78 781.583 1003.61 775.75C998.609 769.75 994.776 762.667 992.109 754.5C989.443 746.167 988.109 736.833 988.109 726.5C988.109 716.333 989.443 707.083 992.109 698.75C994.776 690.417 998.609 683.333 1003.61 677.5C1008.78 671.5 1014.94 666.917 1022.11 663.75C1029.44 660.583 1037.61 659 1046.61 659C1055.61 659 1063.69 660.583 1070.86 663.75C1078.19 666.917 1084.36 671.5 1089.36 677.5C1094.53 683.333 1098.44 690.417 1101.11 698.75C1103.78 707.083 1105.11 716.333 1105.11 726.5C1105.11 736.833 1103.78 746.167 1101.11 754.5C1098.44 762.667 1094.53 769.75 1089.36 775.75C1084.36 781.583 1078.19 786.083 1070.86 789.25C1063.69 792.417 1055.61 794 1046.61 794ZM1046.61 776.75C1057.78 776.75 1066.78 773.417 1073.61 766.75C1080.44 760.083 1083.86 749.75 1083.86 735.75V717.25C1083.86 703.25 1080.44 692.917 1073.61 686.25C1066.78 679.583 1057.78 676.25 1046.61 676.25C1035.44 676.25 1026.44 679.583 1019.61 686.25C1012.78 692.917 1009.36 703.25 1009.36 717.25V735.75C1009.36 749.75 1012.78 760.083 1019.61 766.75C1026.44 773.417 1035.44 776.75 1046.61 776.75ZM1146.01 791V662H1166.01V683H1167.01C1168.35 679.833 1170.01 676.833 1172.01 674C1174.01 671 1176.43 668.417 1179.26 666.25C1182.26 664.083 1185.76 662.333 1189.76 661C1193.76 659.667 1198.43 659 1203.76 659C1217.26 659 1228.1 663.333 1236.26 672C1244.43 680.5 1248.51 692.583 1248.51 708.25V791H1228.51V711.75C1228.51 699.917 1225.93 691.167 1220.76 685.5C1215.6 679.667 1208.01 676.75 1198.01 676.75C1194.01 676.75 1190.1 677.25 1186.26 678.25C1182.43 679.25 1179.01 680.75 1176.01 682.75C1173.01 684.75 1170.6 687.333 1168.76 690.5C1166.93 693.667 1166.01 697.333 1166.01 701.5V791H1146.01ZM1348.66 794C1339.33 794 1330.91 792.417 1323.41 789.25C1316.08 786.083 1309.75 781.583 1304.41 775.75C1299.25 769.75 1295.25 762.667 1292.41 754.5C1289.58 746.167 1288.16 736.917 1288.16 726.75C1288.16 716.417 1289.58 707.083 1292.41 698.75C1295.41 690.417 1299.5 683.333 1304.66 677.5C1309.83 671.5 1316 666.917 1323.16 663.75C1330.5 660.583 1338.58 659 1347.41 659C1356.08 659 1363.91 660.583 1370.91 663.75C1378.08 666.917 1384.16 671.333 1389.16 677C1394.16 682.5 1398 689.083 1400.66 696.75C1403.33 704.417 1404.66 712.833 1404.66 722V731.5H1309.16V737.5C1309.16 743.167 1310.08 748.417 1311.91 753.25C1313.75 758.083 1316.33 762.25 1319.66 765.75C1323.16 769.25 1327.33 772 1332.16 774C1337.16 775.833 1342.66 776.75 1348.66 776.75C1357.33 776.75 1364.83 774.75 1371.16 770.75C1377.5 766.75 1382.33 761.25 1385.66 754.25L1400.41 764.25C1396.58 772.917 1390.16 780.083 1381.16 785.75C1372.33 791.25 1361.5 794 1348.66 794ZM1347.41 675.5C1341.91 675.5 1336.83 676.5 1332.16 678.5C1327.5 680.5 1323.41 683.25 1319.91 686.75C1316.58 690.25 1313.91 694.417 1311.91 699.25C1310.08 703.917 1309.16 709.083 1309.16 714.75V716.5H1383.16V713.75C1383.16 708.083 1382.25 702.917 1380.41 698.25C1378.75 693.583 1376.33 689.583 1373.16 686.25C1370.16 682.75 1366.41 680.083 1361.91 678.25C1357.58 676.417 1352.75 675.5 1347.41 675.5ZM1445.82 791V662H1465.82V683H1466.82C1468.15 679.833 1469.82 676.833 1471.82 674C1473.82 671 1476.23 668.417 1479.07 666.25C1482.07 664.083 1485.57 662.333 1489.57 661C1493.57 659.667 1498.23 659 1503.57 659C1517.07 659 1527.9 663.333 1536.07 672C1544.23 680.5 1548.32 692.583 1548.32 708.25V791H1528.32V711.75C1528.32 699.917 1525.73 691.167 1520.57 685.5C1515.4 679.667 1507.82 676.75 1497.82 676.75C1493.82 676.75 1489.9 677.25 1486.07 678.25C1482.23 679.25 1478.82 680.75 1475.82 682.75C1472.82 684.75 1470.4 687.333 1468.57 690.5C1466.73 693.667 1465.82 697.333 1465.82 701.5V791H1445.82ZM1652.47 791C1642.64 791 1635.39 788.25 1630.72 782.75C1626.22 777.25 1623.97 770.167 1623.97 761.5V679H1580.97V662H1612.97C1617.3 662 1620.3 661.167 1621.97 659.5C1623.8 657.667 1624.72 654.583 1624.72 650.25V616.5H1643.97V662H1702.72V679H1643.97V774H1702.72V791H1652.47ZM1797.62 794C1784.12 794 1772.45 791.75 1762.62 787.25C1752.95 782.583 1744.7 776.417 1737.87 768.75L1751.37 757C1757.54 763.5 1764.29 768.5 1771.62 772C1778.95 775.5 1787.79 777.25 1798.12 777.25C1808.12 777.25 1816.29 775.5 1822.62 772C1829.12 768.333 1832.37 762.667 1832.37 755C1832.37 751.667 1831.7 748.917 1830.37 746.75C1829.2 744.417 1827.54 742.583 1825.37 741.25C1823.2 739.917 1820.79 738.917 1818.12 738.25C1815.45 737.417 1812.62 736.75 1809.62 736.25L1789.37 733.25C1784.87 732.583 1779.95 731.667 1774.62 730.5C1769.45 729.333 1764.7 727.5 1760.37 725C1756.04 722.333 1752.37 718.833 1749.37 714.5C1746.54 710.167 1745.12 704.5 1745.12 697.5C1745.12 691 1746.37 685.417 1748.87 680.75C1751.54 675.917 1755.2 671.917 1759.87 668.75C1764.54 665.417 1770.04 663 1776.37 661.5C1782.7 659.833 1789.62 659 1797.12 659C1808.79 659 1818.87 660.833 1827.37 664.5C1836.04 668.167 1843.45 673.25 1849.62 679.75L1836.62 692C1835.12 690.167 1833.2 688.333 1830.87 686.5C1828.7 684.5 1825.95 682.75 1822.62 681.25C1819.45 679.583 1815.7 678.25 1811.37 677.25C1807.04 676.25 1802.04 675.75 1796.37 675.75C1786.2 675.75 1778.37 677.5 1772.87 681C1767.54 684.5 1764.87 689.583 1764.87 696.25C1764.87 699.583 1765.45 702.417 1766.62 704.75C1767.95 706.917 1769.7 708.667 1771.87 710C1774.04 711.333 1776.45 712.417 1779.12 713.25C1781.95 713.917 1784.79 714.5 1787.62 715L1807.87 718C1812.54 718.667 1817.45 719.583 1822.62 720.75C1827.79 721.917 1832.54 723.833 1836.87 726.5C1841.2 729 1844.79 732.417 1847.62 736.75C1850.62 741.083 1852.12 746.75 1852.12 753.75C1852.12 766.583 1847.12 776.5 1837.12 783.5C1827.29 790.5 1814.12 794 1797.62 794ZM1946.02 793.25C1939.19 793.25 1934.36 791.833 1931.52 789C1928.86 786.167 1927.52 782.583 1927.52 778.25V773.75C1927.52 769.417 1928.86 765.833 1931.52 763C1934.36 760.167 1939.19 758.75 1946.02 758.75C1952.86 758.75 1957.61 760.167 1960.27 763C1963.11 765.833 1964.52 769.417 1964.52 773.75V778.25C1964.52 782.583 1963.11 786.167 1960.27 789C1957.61 791.833 1952.86 793.25 1946.02 793.25Z" fill="white"/>
    <path d="M3291 698L3185 504.5L3404.5 508.5L3291 698Z" fill="white" stroke="black"/>
    <rect width="118.948" height="507.299" transform="matrix(0.907515 -0.420019 0.454872 0.890557 2657.84 508.845)" fill="white"/>
    <rect width="101.357" height="231.365" transform="matrix(0.893453 0.449156 -0.485139 0.874437 2974.36 778.329)" fill="black"/>
    <rect width="118.948" height="507.299" transform="matrix(0.907515 -0.420019 0.454872 0.890557 2917.96 508.845)" fill="white"/>
    <path d="M3291.49 566L3287.69 717.44L3151.14 494.603L3291.49 566Z" fill="black"/>
    <rect x="2658" y="417" width="737" height="99" fill="black"/>
    <rect x="2658" y="947" width="822" height="99" fill="black"/>
    <rect x="3233" y="893" width="110" height="99" fill="black"/>
    <rect width="82.2713" height="583.391" transform="matrix(0.893453 0.449156 -0.485139 0.874437 3406.03 470)" fill="black"/>
    <rect x="3381" y="1046" width="629" height="99" transform="rotate(-90 3381 1046)" fill="black"/>
    <rect x="2562" y="1046" width="629" height="99" transform="rotate(-90 2562 1046)" fill="black"/>
</svg>
